<svg width="307" height="180" viewBox="0 0 307 180" fill="none" xmlns="http://www.w3.org/2000/svg">
<rect x="0.5" y="0.5" width="306" height="179" rx="3.5" fill="white"/>
<path fill-rule="evenodd" clip-rule="evenodd" d="M25.333 34C25.333 30.32 28.3197 27.3333 31.9997 27.3333C35.6797 27.3333 38.6663 30.32 38.6663 34C38.6663 37.68 35.6797 40.6667 31.9997 40.6667C28.3197 40.6667 25.333 37.68 25.333 34ZM27.333 34L30.6663 37.3333L36.6663 31.3333L35.7263 30.3867L30.6663 35.4467L28.273 33.06L27.333 34Z" fill="#2CB46F"/>
<path d="M46.3118 39L47.152 36.4893H50.9801L51.8253 39H53.794L50.2045 28.8182H47.9276L44.343 39H46.3118ZM47.6491 35.0078L49.0263 30.9062H49.1058L50.483 35.0078H47.6491ZM58.1541 39.1491C60.0732 39.1491 61.2962 38.0107 61.4254 36.3899H59.7053C59.5511 37.2102 58.9595 37.6825 58.169 37.6825C57.0455 37.6825 56.3196 36.7429 56.3196 35.1818C56.3196 33.6406 57.0604 32.7159 58.169 32.7159C59.0341 32.7159 59.5661 33.2727 59.7053 34.0085H61.4254C61.3011 32.353 60.0085 31.2642 58.1442 31.2642C55.907 31.2642 54.495 32.88 54.495 35.2116C54.495 37.5234 55.8722 39.1491 58.1541 39.1491ZM66.7164 31.3636H65.21V29.5341H63.4103V31.3636H62.3265V32.7557H63.4103V37.0014C63.4004 38.4382 64.4444 39.1442 65.7967 39.1044C66.3088 39.0895 66.6618 38.9901 66.8556 38.9254L66.5524 37.5185C66.4529 37.5433 66.2491 37.5881 66.0254 37.5881C65.573 37.5881 65.21 37.429 65.21 36.7031V32.7557H66.7164V31.3636ZM68.2216 39H70.0213V31.3636H68.2216V39ZM69.1264 30.2798C69.6982 30.2798 70.1655 29.8423 70.1655 29.3054C70.1655 28.7635 69.6982 28.326 69.1264 28.326C68.5497 28.326 68.0824 28.7635 68.0824 29.3054C68.0824 29.8423 68.5497 30.2798 69.1264 30.2798ZM78.693 31.3636H76.7789L75.019 37.0362H74.9395L73.1845 31.3636H71.2654L73.9849 39H75.9735L78.693 31.3636ZM83.0593 39.1491C84.8391 39.1491 86.0621 38.2791 86.3803 36.9517L84.6999 36.7628C84.4563 37.4091 83.8597 37.7472 83.0842 37.7472C81.9208 37.7472 81.1502 36.9815 81.1353 35.674H86.4549V35.1222C86.4549 32.4425 84.8441 31.2642 82.9648 31.2642C80.7773 31.2642 79.3505 32.87 79.3505 35.2266C79.3505 37.6229 80.7575 39.1491 83.0593 39.1491ZM81.1403 34.4609C81.195 33.4865 81.9158 32.6662 82.9897 32.6662C84.0238 32.6662 84.7198 33.4219 84.7298 34.4609H81.1403ZM94.7811 39.1491C97.0183 39.1491 98.4402 37.5732 98.4402 35.2116C98.4402 32.8452 97.0183 31.2642 94.7811 31.2642C92.5439 31.2642 91.122 32.8452 91.122 35.2116C91.122 37.5732 92.5439 39.1491 94.7811 39.1491ZM94.791 37.7074C93.5531 37.7074 92.9466 36.6037 92.9466 35.2067C92.9466 33.8097 93.5531 32.6911 94.791 32.6911C96.0091 32.6911 96.6156 33.8097 96.6156 35.2067C96.6156 36.6037 96.0091 37.7074 94.791 37.7074ZM101.767 34.5256C101.767 33.4219 102.434 32.7855 103.383 32.7855C104.313 32.7855 104.87 33.397 104.87 34.4162V39H106.669V34.1378C106.674 32.3082 105.63 31.2642 104.054 31.2642C102.911 31.2642 102.125 31.8111 101.777 32.6612H101.688V31.3636H99.9677V39H101.767V34.5256ZM118.007 33.3821C117.759 32.0895 116.724 31.2642 114.935 31.2642C113.095 31.2642 111.842 32.169 111.847 33.581C111.842 34.6946 112.528 35.4304 113.995 35.7337L115.298 36.0071C115.999 36.1612 116.327 36.4446 116.327 36.8771C116.327 37.3991 115.76 37.7919 114.905 37.7919C114.08 37.7919 113.543 37.4339 113.388 36.7479L111.634 36.9169C111.857 38.3189 113.036 39.1491 114.91 39.1491C116.819 39.1491 118.166 38.1598 118.171 36.7131C118.166 35.6243 117.465 34.9581 116.023 34.6449L114.721 34.3665C113.945 34.1925 113.637 33.924 113.642 33.4815C113.637 32.9645 114.209 32.6065 114.96 32.6065C115.79 32.6065 116.227 33.0589 116.366 33.5611L118.007 33.3821ZM119.655 39H121.455V31.3636H119.655V39ZM120.56 30.2798C121.132 30.2798 121.599 29.8423 121.599 29.3054C121.599 28.7635 121.132 28.326 120.56 28.326C119.983 28.326 119.516 28.7635 119.516 29.3054C119.516 29.8423 119.983 30.2798 120.56 30.2798ZM127.119 31.3636H125.612V29.5341H123.813V31.3636H122.729V32.7557H123.813V37.0014C123.803 38.4382 124.847 39.1442 126.199 39.1044C126.711 39.0895 127.064 38.9901 127.258 38.9254L126.955 37.5185C126.855 37.5433 126.651 37.5881 126.428 37.5881C125.975 37.5881 125.612 37.429 125.612 36.7031V32.7557H127.119V31.3636ZM131.923 39.1491C133.702 39.1491 134.925 38.2791 135.244 36.9517L133.563 36.7628C133.32 37.4091 132.723 37.7472 131.947 37.7472C130.784 37.7472 130.013 36.9815 129.999 35.674H135.318V35.1222C135.318 32.4425 133.707 31.2642 131.828 31.2642C129.641 31.2642 128.214 32.87 128.214 35.2266C128.214 37.6229 129.621 39.1491 131.923 39.1491ZM130.004 34.4609C130.058 33.4865 130.779 32.6662 131.853 32.6662C132.887 32.6662 133.583 33.4219 133.593 34.4609H130.004ZM146.548 39.3679L151.37 34.5455L146.548 29.723L145.524 30.7422L148.591 33.8047H141.139V35.2862H148.591L145.524 38.3537L146.548 39.3679Z" fill="#060A0A"/>
<path d="M29.5929 98.6765H30.6669V97.1768C33.6205 97.0131 35.3363 95.4872 35.3429 93.1688C35.3363 90.9356 33.6532 89.7503 31.3218 89.2263L30.6669 89.0692V85.8077C31.7147 85.9453 32.35 86.5347 32.4417 87.445H35.1595C35.1202 85.1921 33.3716 83.5942 30.6669 83.4174V81.9111H29.5929V83.4239C26.9536 83.6269 25.074 85.1921 25.0871 87.4646C25.0806 89.4424 26.4755 90.5754 28.7415 91.119L29.5929 91.3351V94.7864C28.3878 94.6424 27.5561 93.9678 27.4775 92.789H24.7335C24.799 95.5265 26.6523 97.0131 29.5929 97.1768V98.6765ZM30.6669 94.7733V91.6102C31.8326 91.9376 32.4744 92.3568 32.481 93.1623C32.4744 94.0071 31.7802 94.6227 30.6669 94.7733ZM29.5929 88.8006C28.676 88.5256 27.9752 88.0868 27.9949 87.2747C27.9949 86.5347 28.5581 85.9584 29.5929 85.8143V88.8006ZM36.9687 94.6424H43.4063V97H46.1176V94.6424H47.7811V92.3699H46.1176V83.5876H42.5681L36.9687 92.4091V94.6424ZM43.4587 92.3699H39.824V92.2651L43.3539 86.6788H43.4587V92.3699ZM54.5691 97.1834C57.5555 97.1834 59.5857 95.2383 59.5791 92.527C59.5857 89.9598 57.7912 88.113 55.3746 88.113C54.1958 88.113 53.1807 88.6042 52.7092 89.2656H52.6306L52.9777 85.906H58.8391V83.5876H50.6397L50.0045 90.6606L52.5258 91.1124C52.9384 90.5558 53.7374 90.2087 54.5298 90.2087C55.8789 90.2152 56.8482 91.191 56.8482 92.5991C56.8482 93.994 55.8986 94.9567 54.5691 94.9567C53.4427 94.9567 52.5324 94.2494 52.4669 93.2081H49.7163C49.7687 95.5265 51.7923 97.1834 54.5691 97.1834ZM64.2011 95.1663H61.8958L61.8631 95.8998C61.7845 97.6811 61.2737 99.5083 61.0837 100.275H62.8913C63.2056 99.4821 63.9522 97.6222 64.129 95.8867L64.2011 95.1663ZM66.7257 97H76.2873V94.6817H70.6551V94.59L72.6133 92.6711C75.3704 90.1563 76.1104 88.8989 76.1104 87.373C76.1104 85.0481 74.2112 83.4043 71.3362 83.4043C68.5201 83.4043 66.5882 85.0874 66.5947 87.7201H69.2864C69.2798 86.4365 70.0919 85.6506 71.3166 85.6506C72.4954 85.6506 73.373 86.3841 73.373 87.5629C73.373 88.6304 72.7181 89.3639 71.4999 90.5361L66.7257 94.9567V97ZM83.6009 97.2947C86.9736 97.2947 89.0103 94.7275 89.0169 90.3069C89.0234 85.9191 86.9605 83.4043 83.6009 83.4043C80.2347 83.4043 78.1914 85.9125 78.1848 90.3069C78.1717 94.7144 80.2216 97.2882 83.6009 97.2947ZM83.6009 94.9436C82.0618 94.9436 81.0664 93.398 81.0729 90.3069C81.0795 87.2616 82.0684 85.7292 83.6009 85.7292C85.1268 85.7292 86.1222 87.2616 86.1222 90.3069C86.1288 93.398 85.1333 94.9436 83.6009 94.9436ZM96.2977 97.2947C99.6705 97.2947 101.707 94.7275 101.714 90.3069C101.72 85.9191 99.6574 83.4043 96.2977 83.4043C92.9316 83.4043 90.8883 85.9125 90.8817 90.3069C90.8686 94.7144 92.9185 97.2882 96.2977 97.2947ZM96.2977 94.9436C94.7587 94.9436 93.7633 93.398 93.7698 90.3069C93.7764 87.2616 94.7653 85.7292 96.2977 85.7292C97.8237 85.7292 98.8191 87.2616 98.8191 90.3069C98.8257 93.398 97.8302 94.9436 96.2977 94.9436Z" fill="#060A0A"/>
<path d="M25.0043 125H26.8487V121.271H28.728L30.7266 125H32.7848L30.5824 120.963C31.7805 120.481 32.4119 119.457 32.4119 118.075C32.4119 116.131 31.1591 114.818 28.8224 114.818H25.0043V125ZM26.8487 119.74V116.359H28.5391C29.9162 116.359 30.5327 116.991 30.5327 118.075C30.5327 119.158 29.9162 119.74 28.549 119.74H26.8487ZM37.3015 125.149C39.0813 125.149 40.3043 124.279 40.6225 122.952L38.9421 122.763C38.6985 123.409 38.1019 123.747 37.3263 123.747C36.163 123.747 35.3924 122.982 35.3775 121.674H40.6971V121.122C40.6971 118.442 39.0863 117.264 37.207 117.264C35.0195 117.264 33.5927 118.87 33.5927 121.227C33.5927 123.623 34.9996 125.149 37.3015 125.149ZM35.3825 120.461C35.4371 119.487 36.158 118.666 37.2319 118.666C38.266 118.666 38.962 119.422 38.9719 120.461H35.3825ZM48.8219 117.364H46.9078L45.1479 123.036H45.0684L43.3134 117.364H41.3944L44.1138 125H46.1025L48.8219 117.364ZM53.1882 125.149C54.968 125.149 56.1911 124.279 56.5092 122.952L54.8288 122.763C54.5852 123.409 53.9886 123.747 53.2131 123.747C52.0497 123.747 51.2791 122.982 51.2642 121.674H56.5838V121.122C56.5838 118.442 54.973 117.264 53.0938 117.264C50.9062 117.264 49.4794 118.87 49.4794 121.227C49.4794 123.623 50.8864 125.149 53.1882 125.149ZM51.2692 120.461C51.3239 119.487 52.0447 118.666 53.1186 118.666C54.1527 118.666 54.8487 119.422 54.8587 120.461H51.2692ZM59.9061 120.526C59.9061 119.422 60.5723 118.786 61.5218 118.786C62.4515 118.786 63.0083 119.397 63.0083 120.416V125H64.8081V120.138C64.813 118.308 63.769 117.264 62.193 117.264C61.0495 117.264 60.264 117.811 59.916 118.661H59.8265V117.364H58.1064V125H59.9061V120.526ZM71.5048 121.788C71.5048 122.952 70.6745 123.528 69.8791 123.528C69.014 123.528 68.4373 122.917 68.4373 121.947V117.364H66.6376V122.226C66.6376 124.06 67.6816 125.099 69.1831 125.099C70.3265 125.099 71.1319 124.498 71.4799 123.643H71.5595V125H73.3045V117.364H71.5048V121.788ZM78.5359 125.149C80.3157 125.149 81.5387 124.279 81.8569 122.952L80.1765 122.763C79.9329 123.409 79.3363 123.747 78.5607 123.747C77.3974 123.747 76.6268 122.982 76.6119 121.674H81.9315V121.122C81.9315 118.442 80.3207 117.264 78.4414 117.264C76.2539 117.264 74.8271 118.87 74.8271 121.227C74.8271 123.623 76.234 125.149 78.5359 125.149ZM76.6168 120.461C76.6715 119.487 77.3924 118.666 78.4663 118.666C79.5004 118.666 80.1964 119.422 80.2063 120.461H76.6168Z" fill="#060A0A"/>
<path d="M27.3706 148.648H28.9216V146.356H31.2134V144.805H28.9216V142.514H27.3706V144.805H25.0788V146.356H27.3706V148.648ZM36.8715 141.127H35.1082L32.9117 142.518V144.182L34.9436 142.908H34.9956V150H36.8715V141.127ZM42.2599 150.121C44.2528 150.121 45.6782 149.025 45.6738 147.509C45.6782 146.404 44.9763 145.616 43.6723 145.451V145.382C44.6644 145.204 45.3489 144.502 45.3446 143.506C45.3489 142.106 44.1229 141.006 42.2859 141.006C40.4663 141.006 39.0973 142.072 39.0713 143.605H40.8692C40.8909 142.93 41.5104 142.492 42.2773 142.492C43.0354 142.492 43.5423 142.951 43.538 143.618C43.5423 144.316 42.9488 144.788 42.0953 144.788H41.2678V146.166H42.0953C43.1004 146.166 43.7286 146.668 43.7243 147.383C43.7286 148.089 43.1221 148.575 42.2643 148.575C41.4368 148.575 40.8172 148.141 40.7826 147.492H38.8937C38.924 149.043 40.3104 150.121 42.2599 150.121ZM47.8682 150.113C48.4227 150.113 48.9036 149.649 48.908 149.073C48.9036 148.505 48.4227 148.042 47.8682 148.042C47.2963 148.042 46.8241 148.505 46.8284 149.073C46.8241 149.649 47.2963 150.113 47.8682 150.113ZM53.575 150.121C55.5506 150.121 56.8936 148.835 56.8893 147.041C56.8936 145.343 55.7066 144.121 54.1079 144.121C53.3281 144.121 52.6566 144.446 52.3446 144.883H52.2926L52.5223 142.661H56.3998V141.127H50.9756L50.5554 145.806L52.2233 146.105C52.4963 145.737 53.0248 145.507 53.549 145.507C54.4415 145.512 55.0827 146.157 55.0827 147.089C55.0827 148.011 54.4545 148.648 53.575 148.648C52.8299 148.648 52.2277 148.18 52.1843 147.492H50.3647C50.3994 149.025 51.7381 150.121 53.575 150.121ZM63.0543 148.336C63.0543 149.402 63.7388 150.308 65.0082 150.308C66.2646 150.308 66.9621 149.402 66.9621 148.336V147.868C66.9621 146.794 66.2819 145.897 65.0082 145.897C63.7561 145.897 63.0543 146.803 63.0543 147.868V148.336ZM58.501 143.259C58.501 144.325 59.1855 145.221 60.4505 145.221C61.7113 145.221 62.4088 144.333 62.4088 143.259V142.791C62.4088 141.716 61.7286 140.82 60.4505 140.82C59.2115 140.82 58.501 141.716 58.501 142.791V143.259ZM59.0772 150H60.2079L66.3079 141.127H65.1772L59.0772 150ZM64.315 147.868C64.315 147.444 64.4883 147.006 65.0082 147.006C65.5541 147.006 65.6927 147.444 65.6927 147.868V148.336C65.6927 148.761 65.5368 149.19 65.0082 149.19C64.4797 149.19 64.315 148.748 64.315 148.336V147.868ZM59.7703 142.791C59.7703 142.379 59.935 141.929 60.4505 141.929C60.9964 141.929 61.1394 142.366 61.1394 142.791V143.259C61.1394 143.683 60.9791 144.112 60.4505 144.112C59.9393 144.112 59.7703 143.683 59.7703 143.259V142.791Z" fill="#2CB46F"/>
<path d="M77.7714 143.345H76.6623L74.8254 148.648H74.7561L72.9191 143.345H71.8101L74.2708 150H75.3106L77.7714 143.345ZM83.8346 144.836C83.514 143.891 82.7948 143.259 81.4778 143.259C80.0741 143.259 79.0343 144.056 79.0343 145.182C79.0343 146.101 79.5802 146.716 80.8019 147.002L81.911 147.262C82.5825 147.418 82.8988 147.738 82.8988 148.198C82.8988 148.77 82.2923 149.238 81.3391 149.238C80.503 149.238 79.9788 148.878 79.7968 148.163L78.8264 148.406C79.0646 149.536 79.9961 150.139 81.3565 150.139C82.9031 150.139 83.9559 149.294 83.9559 148.146C83.9559 147.219 83.3754 146.634 82.1883 146.343L81.2005 146.101C80.412 145.906 80.0567 145.642 80.0567 145.13C80.0567 144.559 80.6633 144.143 81.4778 144.143C82.3702 144.143 82.7385 144.637 82.9161 145.096L83.8346 144.836ZM88.9262 152.495H89.9487V148.978H90.0353C90.2606 149.341 90.6938 150.139 91.9762 150.139C93.6399 150.139 94.8009 148.804 94.8009 146.69C94.8009 144.593 93.6399 143.259 91.9589 143.259C90.6592 143.259 90.2606 144.056 90.0353 144.403H89.914V143.345H88.9262V152.495ZM89.9313 146.673C89.9313 145.182 90.5899 144.177 91.8376 144.177C93.1373 144.177 93.7785 145.269 93.7785 146.673C93.7785 148.094 93.12 149.22 91.8376 149.22C90.6072 149.22 89.9313 148.18 89.9313 146.673ZM96.3606 150H97.383V145.789C97.383 144.888 98.0936 144.229 99.064 144.229C99.3369 144.229 99.6186 144.281 99.6879 144.299V143.259C99.5709 143.25 99.3023 143.241 99.1507 143.241C98.3535 143.241 97.6603 143.692 97.4177 144.351H97.3484V143.345H96.3606V150ZM103.487 150.139C104.839 150.139 105.827 149.463 106.139 148.458L105.151 148.18C104.891 148.874 104.289 149.22 103.487 149.22C102.287 149.22 101.46 148.445 101.412 147.019H106.243V146.586C106.243 144.108 104.77 143.259 103.383 143.259C101.581 143.259 100.385 144.68 100.385 146.725C100.385 148.77 101.564 150.139 103.487 150.139ZM101.412 146.136C101.481 145.1 102.214 144.177 103.383 144.177C104.492 144.177 105.203 145.009 105.203 146.136H101.412ZM113.037 143.345H111.928L110.091 148.648H110.022L108.185 143.345H107.076L109.536 150H110.576L113.037 143.345ZM114.387 150H115.409V143.345H114.387V150ZM114.906 142.236C115.305 142.236 115.634 141.924 115.634 141.543C115.634 141.162 115.305 140.85 114.906 140.85C114.508 140.85 114.179 141.162 114.179 141.543C114.179 141.924 114.508 142.236 114.906 142.236ZM119.985 150.139C121.787 150.139 123 148.77 123 146.707C123 144.628 121.787 143.259 119.985 143.259C118.183 143.259 116.97 144.628 116.97 146.707C116.97 148.77 118.183 150.139 119.985 150.139ZM119.985 149.22C118.616 149.22 117.992 148.042 117.992 146.707C117.992 145.373 118.616 144.177 119.985 144.177C121.354 144.177 121.978 145.373 121.978 146.707C121.978 148.042 121.354 149.22 119.985 149.22ZM128.755 147.279C128.755 148.527 127.802 149.099 127.039 149.099C126.19 149.099 125.584 148.475 125.584 147.505V143.345H124.561V147.574C124.561 149.272 125.462 150.087 126.71 150.087C127.715 150.087 128.374 149.549 128.686 148.874H128.755V150H129.777V143.345H128.755V147.279ZM136.364 144.836C136.043 143.891 135.324 143.259 134.007 143.259C132.603 143.259 131.563 144.056 131.563 145.182C131.563 146.101 132.109 146.716 133.331 147.002L134.44 147.262C135.112 147.418 135.428 147.738 135.428 148.198C135.428 148.77 134.821 149.238 133.868 149.238C133.032 149.238 132.508 148.878 132.326 148.163L131.355 148.406C131.594 149.536 132.525 150.139 133.886 150.139C135.432 150.139 136.485 149.294 136.485 148.146C136.485 147.219 135.904 146.634 134.717 146.343L133.73 146.101C132.941 145.906 132.586 145.642 132.586 145.13C132.586 144.559 133.192 144.143 134.007 144.143C134.899 144.143 135.268 144.637 135.445 145.096L136.364 144.836ZM144.436 150.121C146.156 150.121 147.434 149.043 147.434 147.591C147.434 146.465 146.767 145.646 145.649 145.46V145.39C146.546 145.117 147.105 144.381 147.105 143.38C147.105 142.124 146.113 141.006 144.471 141.006C142.937 141.006 141.663 141.95 141.611 143.345H142.651C142.69 142.462 143.531 141.942 144.453 141.942C145.432 141.942 146.065 142.535 146.065 143.432C146.065 144.368 145.333 144.974 144.28 144.974H143.57V145.928H144.28C145.627 145.928 146.377 146.612 146.377 147.591C146.377 148.531 145.558 149.168 144.419 149.168C143.392 149.168 142.577 148.64 142.512 147.782H141.421C141.486 149.177 142.716 150.121 144.436 150.121ZM152.1 150.121C154.058 150.121 155.185 148.462 155.185 145.564C155.185 142.687 154.041 141.006 152.1 141.006C150.159 141.006 149.015 142.687 149.015 145.564C149.015 148.462 150.142 150.121 152.1 150.121ZM152.1 149.168C150.809 149.168 150.055 147.873 150.055 145.564C150.055 143.259 150.818 141.942 152.1 141.942C153.382 141.942 154.145 143.259 154.145 145.564C154.145 147.873 153.391 149.168 152.1 149.168ZM159.361 150.139C160.643 150.139 161.077 149.341 161.302 148.978H161.423V150H162.411V141.127H161.389V144.403H161.302C161.077 144.056 160.678 143.259 159.378 143.259C157.697 143.259 156.536 144.593 156.536 146.69C156.536 148.804 157.697 150.139 159.361 150.139ZM159.5 149.22C158.217 149.22 157.559 148.094 157.559 146.673C157.559 145.269 158.2 144.177 159.5 144.177C160.747 144.177 161.406 145.182 161.406 146.673C161.406 148.18 160.73 149.22 159.5 149.22Z" fill="#4A4945"/>
<path d="M197 149.824C220.944 153.355 228.209 125.112 239.465 115.699C248.607 108.053 254.661 108.348 262.693 103.635C270.725 98.9218 274.484 98.1279 284 98.1279" stroke="#B4BBC3" stroke-dasharray="5 5"/>
<path d="M197 154.131C220.807 164.496 222.1 129.613 233.291 101.98C242.381 79.5371 256.128 94.9744 264.114 81.139C272.101 67.3036 274.538 85.7858 284 85.7858" stroke="#186C7E"/>
<rect x="0.5" y="0.5" width="306" height="179" rx="3.5" stroke="#E2DFDB"/>
</svg>
