<svg width="307" height="180" viewBox="0 0 307 180" fill="none" xmlns="http://www.w3.org/2000/svg">
<rect x="0.5" y="0.5" width="306" height="179" rx="3.5" fill="white"/>
<path fill-rule="evenodd" clip-rule="evenodd" d="M33.0424 28.2068C32.5896 27.3651 31.3825 27.3648 30.9292 28.2062L25.7439 37.8308C25.3131 38.6303 25.8922 39.6 26.8003 39.6H37.1643C38.0722 39.6 38.6512 38.6309 38.221 37.8314L33.0424 28.2068ZM32.8003 34.8H31.2003V30H32.8003V34.8ZM32.8003 38H31.2003V36.4H32.8003V38Z" fill="#D0331F"/>
<path d="M53.7195 32.2536C53.4062 29.9915 51.6662 28.679 49.4091 28.679C46.7493 28.679 44.7457 30.6179 44.7457 33.9091C44.7457 37.1953 46.7244 39.1392 49.4091 39.1392C51.8303 39.1392 53.4361 37.5732 53.7195 35.6293L51.8601 35.6193C51.6264 36.8125 50.652 37.4837 49.4339 37.4837C47.7834 37.4837 46.6001 36.2457 46.6001 33.9091C46.6001 31.6122 47.7734 30.3345 49.4389 30.3345C50.6768 30.3345 51.6463 31.0355 51.8601 32.2536H53.7195ZM57.1287 28.8182H55.329V39H57.1287V28.8182ZM58.9794 39H60.7791V31.3636H58.9794V39ZM59.8842 30.2798C60.456 30.2798 60.9233 29.8423 60.9233 29.3054C60.9233 28.7635 60.456 28.326 59.8842 28.326C59.3075 28.326 58.8402 28.7635 58.8402 29.3054C58.8402 29.8423 59.3075 30.2798 59.8842 30.2798ZM65.9608 39.1491C67.8798 39.1491 69.1028 38.0107 69.2321 36.3899H67.5119C67.3578 37.2102 66.7662 37.6825 65.9757 37.6825C64.8521 37.6825 64.1262 36.7429 64.1262 35.1818C64.1262 33.6406 64.867 32.7159 65.9757 32.7159C66.8407 32.7159 67.3727 33.2727 67.5119 34.0085H69.2321C69.1078 32.353 67.8152 31.2642 65.9508 31.2642C63.7136 31.2642 62.3017 32.88 62.3017 35.2116C62.3017 37.5234 63.6788 39.1491 65.9608 39.1491ZM70.7099 39H72.5096V36.4347L73.1658 35.7337L75.5025 39H77.6552L74.5231 34.6598L77.4812 31.3636H75.3782L72.6339 34.4311H72.5096V28.8182H70.7099V39ZM82.1532 39H83.9529V34.5107C83.9529 33.5412 84.6838 32.8551 85.6731 32.8551C85.9764 32.8551 86.3542 32.9098 86.5083 32.9595V31.304C86.3443 31.2741 86.0609 31.2543 85.862 31.2543C84.987 31.2543 84.2562 31.7514 83.9778 32.6364H83.8983V31.3636H82.1532V39ZM89.7511 39.1541C90.9492 39.1541 91.6651 38.5923 91.9933 37.951H92.0529V39H93.783V33.8892C93.783 31.8707 92.1374 31.2642 90.6808 31.2642C89.0749 31.2642 87.842 31.9801 87.4442 33.3722L89.1246 33.6108C89.3036 33.0888 89.8107 32.6413 90.6907 32.6413C91.5259 32.6413 91.9833 33.0689 91.9833 33.8196V33.8494C91.9833 34.3665 91.4414 34.3913 90.0941 34.5355C88.6126 34.6946 87.1957 35.1371 87.1957 36.8572C87.1957 38.3587 88.2944 39.1541 89.7511 39.1541ZM90.2184 37.8317C89.4677 37.8317 88.9308 37.4886 88.9308 36.8274C88.9308 36.1364 89.5323 35.848 90.3377 35.7337C90.81 35.669 91.7546 35.5497 91.9883 35.3608V36.2607C91.9883 37.1108 91.3022 37.8317 90.2184 37.8317ZM99.4059 31.3636H97.8995V29.5341H96.0998V31.3636H95.016V32.7557H96.0998V37.0014C96.0898 38.4382 97.1339 39.1442 98.4862 39.1044C98.9982 39.0895 99.3512 38.9901 99.5451 38.9254L99.2418 37.5185C99.1424 37.5433 98.9386 37.5881 98.7148 37.5881C98.2624 37.5881 97.8995 37.429 97.8995 36.7031V32.7557H99.4059V31.3636ZM104.21 39.1491C105.99 39.1491 107.213 38.2791 107.531 36.9517L105.85 36.7628C105.607 37.4091 105.01 37.7472 104.235 37.7472C103.071 37.7472 102.301 36.9815 102.286 35.674H107.605V35.1222C107.605 32.4425 105.994 31.2642 104.115 31.2642C101.928 31.2642 100.501 32.87 100.501 35.2266C100.501 37.6229 101.908 39.1491 104.21 39.1491ZM102.291 34.4609C102.345 33.4865 103.066 32.6662 104.14 32.6662C105.174 32.6662 105.87 33.4219 105.88 34.4609H102.291ZM118.835 39.3679L123.657 34.5455L118.835 29.723L117.811 30.7422L120.878 33.8047H113.426V35.2862H120.878L117.811 38.3537L118.835 39.3679Z" fill="#060A0A"/>
<path d="M24.8841 94.6424H31.3218V97H34.0331V94.6424H35.6965V92.3699H34.0331V83.5876H30.4835L24.8841 92.4091V94.6424ZM31.3742 92.3699H27.7395V92.2651L31.2694 86.6788H31.3742V92.3699ZM42.5435 97.1834C45.5561 97.1834 47.7107 95.5265 47.7041 93.2343C47.7107 91.5643 46.6497 90.3724 44.6785 90.1235V90.0188C46.1782 89.7503 47.213 88.6893 47.2064 87.183C47.213 85.0677 45.3596 83.4043 42.5828 83.4043C39.8322 83.4043 37.7627 85.0153 37.7234 87.3337H40.4413C40.474 86.312 41.4105 85.6506 42.5697 85.6506C43.7158 85.6506 44.482 86.3448 44.4755 87.3533C44.482 88.4077 43.5848 89.1215 42.2946 89.1215H41.0438V91.2041H42.2946C43.814 91.2041 44.7636 91.9638 44.7571 93.0444C44.7636 94.1119 43.8468 94.8454 42.5501 94.8454C41.2992 94.8454 40.3627 94.1905 40.3103 93.2081H37.4549C37.5008 95.5527 39.5965 97.1834 42.5435 97.1834ZM52.4227 95.1663H50.1174L50.0847 95.8998C50.0061 97.6811 49.4953 99.5083 49.3054 100.275H51.1129C51.4272 99.4821 52.1738 97.6222 52.3506 95.8867L52.4227 95.1663ZM59.6479 97.2947C63.0206 97.2947 65.0574 94.7275 65.0639 90.3069C65.0705 85.9191 63.0075 83.4043 59.6479 83.4043C56.2817 83.4043 54.2384 85.9125 54.2318 90.3069C54.2187 94.7144 56.2686 97.2882 59.6479 97.2947ZM59.6479 94.9436C58.1089 94.9436 57.1134 93.398 57.12 90.3069C57.1265 87.2616 58.1154 85.7292 59.6479 85.7292C61.1738 85.7292 62.1692 87.2616 62.1692 90.3069C62.1758 93.398 61.1803 94.9436 59.6479 94.9436ZM71.9846 97.1834C74.9709 97.1834 77.0011 95.2383 76.9946 92.527C77.0011 89.9598 75.2067 88.113 72.7901 88.113C71.6113 88.113 70.5962 88.6042 70.1246 89.2656H70.0461L70.3932 85.906H76.2545V83.5876H68.0552L67.4199 90.6606L69.9413 91.1124C70.3539 90.5558 71.1528 90.2087 71.9453 90.2087C73.2944 90.2152 74.2636 91.191 74.2636 92.5991C74.2636 93.994 73.314 94.9567 71.9846 94.9567C70.8581 94.9567 69.9478 94.2494 69.8823 93.2081H67.1317C67.1841 95.5265 69.2078 97.1834 71.9846 97.1834ZM78.7693 94.6424H85.207V97H87.9183V94.6424H89.5817V92.3699H87.9183V83.5876H84.3687L78.7693 92.4091V94.6424ZM85.2594 92.3699H81.6247V92.2651L85.1546 86.6788H85.2594V92.3699Z" fill="#060A0A"/>
<path d="M30.5376 117.617H32.3125C32.2777 115.897 30.8111 114.679 28.6435 114.679C26.5057 114.679 24.8999 115.882 24.9048 117.682C24.9048 119.143 25.9439 119.984 27.6193 120.416L28.7777 120.714C29.8764 120.993 30.6023 121.336 30.6072 122.126C30.6023 122.996 29.777 123.578 28.5739 123.578C27.4205 123.578 26.5256 123.061 26.451 121.992H24.6364C24.7109 124.016 26.2173 125.154 28.5888 125.154C31.0298 125.154 32.4467 123.936 32.4517 122.141C32.4467 120.376 30.9901 119.571 29.4588 119.208L28.5043 118.969C27.669 118.771 26.7642 118.418 26.7741 117.567C26.7791 116.802 27.4652 116.24 28.6186 116.24C29.7173 116.24 30.4432 116.752 30.5376 117.617ZM38.8837 121.788C38.8837 122.952 38.0534 123.528 37.258 123.528C36.3929 123.528 35.8162 122.917 35.8162 121.947V117.364H34.0165V122.226C34.0165 124.06 35.0605 125.099 36.562 125.099C37.7054 125.099 38.5108 124.498 38.8588 123.643H38.9384V125H40.6834V117.364H38.8837V121.788ZM42.6136 125H44.3835V123.797H44.4879C44.7713 124.354 45.3629 125.134 46.6754 125.134C48.4751 125.134 49.8224 123.707 49.8224 121.192C49.8224 118.646 48.4354 117.264 46.6705 117.264C45.3232 117.264 44.7614 118.075 44.4879 118.626H44.4134V114.818H42.6136V125ZM44.3786 121.182C44.3786 119.7 45.0149 118.741 46.1733 118.741C47.3714 118.741 47.9879 119.76 47.9879 121.182C47.9879 122.614 47.3615 123.658 46.1733 123.658C45.0249 123.658 44.3786 122.663 44.3786 121.182ZM57.388 119.382C57.1394 118.089 56.1053 117.264 54.3155 117.264C52.476 117.264 51.2232 118.169 51.2282 119.581C51.2232 120.695 51.9093 121.43 53.3759 121.734L54.6784 122.007C55.3794 122.161 55.7076 122.445 55.7076 122.877C55.7076 123.399 55.1408 123.792 54.2857 123.792C53.4604 123.792 52.9235 123.434 52.7694 122.748L51.0144 122.917C51.2381 124.319 52.4164 125.149 54.2907 125.149C56.1998 125.149 57.5471 124.16 57.552 122.713C57.5471 121.624 56.8461 120.958 55.4043 120.645L54.1017 120.366C53.3262 120.192 53.0179 119.924 53.0229 119.482C53.0179 118.964 53.5897 118.607 54.3404 118.607C55.1706 118.607 55.6081 119.059 55.7473 119.561L57.388 119.382ZM62.367 125.149C64.286 125.149 65.5091 124.011 65.6383 122.39H63.9181C63.764 123.21 63.1724 123.683 62.3819 123.683C61.2583 123.683 60.5325 122.743 60.5325 121.182C60.5325 119.641 61.2733 118.716 62.3819 118.716C63.247 118.716 63.7789 119.273 63.9181 120.009H65.6383C65.514 118.353 64.2214 117.264 62.3571 117.264C60.1199 117.264 58.7079 118.88 58.7079 121.212C58.7079 123.523 60.085 125.149 62.367 125.149ZM67.1161 125H68.9158V120.511C68.9158 119.541 69.6467 118.855 70.636 118.855C70.9393 118.855 71.3171 118.91 71.4712 118.96V117.304C71.3072 117.274 71.0238 117.254 70.8249 117.254C69.9499 117.254 69.2191 117.751 68.9407 118.636H68.8612V117.364H67.1161V125ZM72.6669 125H74.4666V117.364H72.6669V125ZM73.5717 116.28C74.1435 116.28 74.6108 115.842 74.6108 115.305C74.6108 114.763 74.1435 114.326 73.5717 114.326C72.995 114.326 72.5277 114.763 72.5277 115.305C72.5277 115.842 72.995 116.28 73.5717 116.28ZM76.3968 125H78.1667V123.797H78.2711C78.5545 124.354 79.1461 125.134 80.4586 125.134C82.2583 125.134 83.6056 123.707 83.6056 121.192C83.6056 118.646 82.2186 117.264 80.4537 117.264C79.1064 117.264 78.5446 118.075 78.2711 118.626H78.1966V114.818H76.3968V125ZM78.1618 121.182C78.1618 119.7 78.7981 118.741 79.9565 118.741C81.1547 118.741 81.7711 119.76 81.7711 121.182C81.7711 122.614 81.1447 123.658 79.9565 123.658C78.8081 123.658 78.1618 122.663 78.1618 121.182ZM88.5163 125.149C90.2962 125.149 91.5192 124.279 91.8374 122.952L90.157 122.763C89.9134 123.409 89.3168 123.747 88.5412 123.747C87.3778 123.747 86.6072 122.982 86.5923 121.674H91.9119V121.122C91.9119 118.442 90.3011 117.264 88.4219 117.264C86.2344 117.264 84.8075 118.87 84.8075 121.227C84.8075 123.623 86.2145 125.149 88.5163 125.149ZM86.5973 120.461C86.652 119.487 87.3729 118.666 88.4467 118.666C89.4808 118.666 90.1768 119.422 90.1868 120.461H86.5973ZM93.4345 125H95.2342V120.511C95.2342 119.541 95.965 118.855 96.9544 118.855C97.2576 118.855 97.6355 118.91 97.7896 118.96V117.304C97.6255 117.274 97.3422 117.254 97.1433 117.254C96.2683 117.254 95.5375 117.751 95.2591 118.636H95.1795V117.364H93.4345V125ZM105.021 119.382C104.772 118.089 103.738 117.264 101.948 117.264C100.109 117.264 98.856 118.169 98.861 119.581C98.856 120.695 99.5421 121.43 101.009 121.734L102.311 122.007C103.012 122.161 103.34 122.445 103.34 122.877C103.34 123.399 102.774 123.792 101.919 123.792C101.093 123.792 100.556 123.434 100.402 122.748L98.6472 122.917C98.8709 124.319 100.049 125.149 101.923 125.149C103.833 125.149 105.18 124.16 105.185 122.713C105.18 121.624 104.479 120.958 103.037 120.645L101.735 120.366C100.959 120.192 100.651 119.924 100.656 119.482C100.651 118.964 101.222 118.607 101.973 118.607C102.803 118.607 103.241 119.059 103.38 119.561L105.021 119.382Z" fill="#060A0A"/>
<path d="M28.8826 144.831H24.8362V146.296H28.8826V144.831ZM34.2981 141.127H32.5348L30.3383 142.518V144.182L32.3702 142.908H32.4222V150H34.2981V141.127ZM39.6865 150.121C41.6794 150.121 43.1047 149.025 43.1004 147.509C43.1047 146.404 42.4029 145.616 41.0988 145.451V145.382C42.091 145.204 42.7755 144.502 42.7711 143.506C42.7755 142.106 41.5494 141.006 39.7125 141.006C37.8929 141.006 36.5238 142.072 36.4979 143.605H38.2958C38.3175 142.93 38.937 142.492 39.7038 142.492C40.462 142.492 40.9689 142.951 40.9645 143.618C40.9689 144.316 40.3753 144.788 39.5219 144.788H38.6944V146.166H39.5219C40.527 146.166 41.1552 146.668 41.1508 147.383C41.1552 148.089 40.5486 148.575 39.6908 148.575C38.8633 148.575 38.2438 148.141 38.2091 147.492H36.3202C36.3505 149.043 37.7369 150.121 39.6865 150.121ZM45.2948 150.113C45.8493 150.113 46.3302 149.649 46.3345 149.073C46.3302 148.505 45.8493 148.042 45.2948 148.042C44.7229 148.042 44.2507 148.505 44.255 149.073C44.2507 149.649 44.7229 150.113 45.2948 150.113ZM51.0016 150.121C52.9772 150.121 54.3202 148.835 54.3159 147.041C54.3202 145.343 53.1331 144.121 51.5345 144.121C50.7547 144.121 50.0831 144.446 49.7712 144.883H49.7192L49.9488 142.661H53.8263V141.127H48.4022L47.9819 145.806L49.6499 146.105C49.9228 145.737 50.4514 145.507 50.9756 145.507C51.8681 145.512 52.5093 146.157 52.5093 147.089C52.5093 148.011 51.8811 148.648 51.0016 148.648C50.2564 148.648 49.6542 148.18 49.6109 147.492H47.7913C47.826 149.025 49.1647 150.121 51.0016 150.121ZM60.4809 148.336C60.4809 149.402 61.1654 150.308 62.4348 150.308C63.6912 150.308 64.3887 149.402 64.3887 148.336V147.868C64.3887 146.794 63.7085 145.897 62.4348 145.897C61.1827 145.897 60.4809 146.803 60.4809 147.868V148.336ZM55.9275 143.259C55.9275 144.325 56.612 145.221 57.8771 145.221C59.1378 145.221 59.8353 144.333 59.8353 143.259V142.791C59.8353 141.716 59.1551 140.82 57.8771 140.82C56.638 140.82 55.9275 141.716 55.9275 142.791V143.259ZM56.5037 150H57.6345L63.7345 141.127H62.6037L56.5037 150ZM61.7416 147.868C61.7416 147.444 61.9149 147.006 62.4348 147.006C62.9806 147.006 63.1193 147.444 63.1193 147.868V148.336C63.1193 148.761 62.9633 149.19 62.4348 149.19C61.9062 149.19 61.7416 148.748 61.7416 148.336V147.868ZM57.1969 142.791C57.1969 142.379 57.3615 141.929 57.8771 141.929C58.423 141.929 58.5659 142.366 58.5659 142.791V143.259C58.5659 143.683 58.4056 144.112 57.8771 144.112C57.3659 144.112 57.1969 143.683 57.1969 143.259V142.791Z" fill="#AD2A1A"/>
<path d="M75.198 143.345H74.0889L72.252 148.648H72.1826L70.3457 143.345H69.2366L71.6974 150H72.7372L75.198 143.345ZM81.2611 144.836C80.9406 143.891 80.2214 143.259 78.9043 143.259C77.5006 143.259 76.4609 144.056 76.4609 145.182C76.4609 146.101 77.0067 146.716 78.2285 147.002L79.3376 147.262C80.0091 147.418 80.3254 147.738 80.3254 148.198C80.3254 148.77 79.7188 149.238 78.7657 149.238C77.9295 149.238 77.4053 148.878 77.2234 148.163L76.2529 148.406C76.4912 149.536 77.4227 150.139 78.783 150.139C80.3297 150.139 81.3825 149.294 81.3825 148.146C81.3825 147.219 80.8019 146.634 79.6148 146.343L78.6271 146.101C77.8386 145.906 77.4833 145.642 77.4833 145.13C77.4833 144.559 78.0898 144.143 78.9043 144.143C79.7968 144.143 80.1651 144.637 80.3427 145.096L81.2611 144.836ZM86.3528 152.495H87.3752V148.978H87.4619C87.6872 149.341 88.1204 150.139 89.4028 150.139C91.0664 150.139 92.2275 148.804 92.2275 146.69C92.2275 144.593 91.0664 143.259 89.3855 143.259C88.0857 143.259 87.6872 144.056 87.4619 144.403H87.3406V143.345H86.3528V152.495ZM87.3579 146.673C87.3579 145.182 88.0164 144.177 89.2642 144.177C90.5639 144.177 91.2051 145.269 91.2051 146.673C91.2051 148.094 90.5465 149.22 89.2642 149.22C88.0338 149.22 87.3579 148.18 87.3579 146.673ZM93.7872 150H94.8096V145.789C94.8096 144.888 95.5201 144.229 96.4906 144.229C96.7635 144.229 97.0451 144.281 97.1144 144.299V143.259C96.9975 143.25 96.7289 143.241 96.5772 143.241C95.7801 143.241 95.0869 143.692 94.8443 144.351H94.7749V143.345H93.7872V150ZM100.914 150.139C102.266 150.139 103.253 149.463 103.565 148.458L102.578 148.18C102.318 148.874 101.715 149.22 100.914 149.22C99.7139 149.22 98.8864 148.445 98.8387 147.019H103.669V146.586C103.669 144.108 102.196 143.259 100.81 143.259C99.0077 143.259 97.812 144.68 97.812 146.725C97.812 148.77 98.9904 150.139 100.914 150.139ZM98.8387 146.136C98.908 145.1 99.6402 144.177 100.81 144.177C101.919 144.177 102.63 145.009 102.63 146.136H98.8387ZM110.464 143.345H109.355L107.518 148.648H107.448L105.611 143.345H104.502L106.963 150H108.003L110.464 143.345ZM111.813 150H112.836V143.345H111.813V150ZM112.333 142.236C112.732 142.236 113.061 141.924 113.061 141.543C113.061 141.162 112.732 140.85 112.333 140.85C111.934 140.85 111.605 141.162 111.605 141.543C111.605 141.924 111.934 142.236 112.333 142.236ZM117.412 150.139C119.214 150.139 120.427 148.77 120.427 146.707C120.427 144.628 119.214 143.259 117.412 143.259C115.609 143.259 114.396 144.628 114.396 146.707C114.396 148.77 115.609 150.139 117.412 150.139ZM117.412 149.22C116.043 149.22 115.419 148.042 115.419 146.707C115.419 145.373 116.043 144.177 117.412 144.177C118.781 144.177 119.405 145.373 119.405 146.707C119.405 148.042 118.781 149.22 117.412 149.22ZM126.181 147.279C126.181 148.527 125.228 149.099 124.466 149.099C123.617 149.099 123.01 148.475 123.01 147.505V143.345H121.988V147.574C121.988 149.272 122.889 150.087 124.137 150.087C125.142 150.087 125.8 149.549 126.112 148.874H126.181V150H127.204V143.345H126.181V147.279ZM133.79 144.836C133.47 143.891 132.75 143.259 131.433 143.259C130.03 143.259 128.99 144.056 128.99 145.182C128.99 146.101 129.536 146.716 130.758 147.002L131.867 147.262C132.538 147.418 132.854 147.738 132.854 148.198C132.854 148.77 132.248 149.238 131.295 149.238C130.459 149.238 129.934 148.878 129.752 148.163L128.782 148.406C129.02 149.536 129.952 150.139 131.312 150.139C132.859 150.139 133.912 149.294 133.912 148.146C133.912 147.219 133.331 146.634 132.144 146.343L131.156 146.101C130.368 145.906 130.012 145.642 130.012 145.13C130.012 144.559 130.619 144.143 131.433 144.143C132.326 144.143 132.694 144.637 132.872 145.096L133.79 144.836ZM141.863 150.121C143.583 150.121 144.861 149.043 144.861 147.591C144.861 146.465 144.193 145.646 143.076 145.46V145.39C143.972 145.117 144.531 144.381 144.531 143.38C144.531 142.124 143.539 141.006 141.897 141.006C140.364 141.006 139.09 141.95 139.038 143.345H140.078C140.117 142.462 140.957 141.942 141.88 141.942C142.859 141.942 143.492 142.535 143.492 143.432C143.492 144.368 142.759 144.974 141.707 144.974H140.996V145.928H141.707C143.054 145.928 143.803 146.612 143.803 147.591C143.803 148.531 142.985 149.168 141.845 149.168C140.818 149.168 140.004 148.64 139.939 147.782H138.847C138.912 149.177 140.143 150.121 141.863 150.121ZM149.527 150.121C151.485 150.121 152.611 148.462 152.611 145.564C152.611 142.687 151.467 141.006 149.527 141.006C147.586 141.006 146.442 142.687 146.442 145.564C146.442 148.462 147.568 150.121 149.527 150.121ZM149.527 149.168C148.236 149.168 147.482 147.873 147.482 145.564C147.482 143.259 148.244 141.942 149.527 141.942C150.809 141.942 151.571 143.259 151.571 145.564C151.571 147.873 150.818 149.168 149.527 149.168ZM156.788 150.139C158.07 150.139 158.503 149.341 158.729 148.978H158.85V150H159.838V141.127H158.815V144.403H158.729C158.503 144.056 158.105 143.259 156.805 143.259C155.124 143.259 153.963 144.593 153.963 146.69C153.963 148.804 155.124 150.139 156.788 150.139ZM156.926 149.22C155.644 149.22 154.985 148.094 154.985 146.673C154.985 145.269 155.627 144.177 156.926 144.177C158.174 144.177 158.833 145.182 158.833 146.673C158.833 148.18 158.157 149.22 156.926 149.22Z" fill="#4A4945"/>
<path d="M197 155.533C220.807 160.965 228.031 117.514 239.222 103.032C248.312 91.2695 254.331 91.7234 262.318 84.4724C270.304 77.2214 274.041 76 283.503 76" stroke="#B4BBC3" stroke-dasharray="5 5"/>
<path d="M197 122.722C220.807 128.153 222.1 109.873 233.291 95.393C242.381 83.632 256.128 91.7216 264.114 84.4715C272.101 77.2213 274.538 86.9065 284 86.9065" stroke="#186C7E"/>
<rect x="0.5" y="0.5" width="306" height="179" rx="3.5" stroke="#E2DFDB"/>
</svg>
