<svg xmlns="http://www.w3.org/2000/svg" width="95" height="29" fill="none"><path fill="#373F47" d="M52.155 3.867a2 2 0 0 1 .552-1.383c.353-.37.834-.583 1.34-.594a1.944 1.944 0 0 1 1.368.589c.363.37.569.873.574 1.398a1.996 1.996 0 0 1-.586 1.368 1.883 1.883 0 0 1-2.691-.013 1.967 1.967 0 0 1-.557-1.365Zm15.084 4.19c.914 0 1.515.526 1.515 1.666 0 .642-.257 1.722-.8 3.241-.74 2.043-1.515 4.38-2.344 7.035-.37-1.283-1.086-3.328-1.97-5.67l-.758-2.155c-.429-1.196-.658-2.13-.658-2.744 0-.847.401-1.323 1.172-1.4V7.65h-6.493v.378c.886.087 1.6.934 2.543 3.504l4.113 11.124c.544 1.459.486 2.773-.17 3.969-.487 1.05-1.143 1.576-1.944 1.576-.999 0-1.515-.438-1.515-1.344 0-.35.659-1.05.659-1.721 0-.934-.714-1.373-1.515-1.373-1.11 0-1.85.788-1.85 1.985.028 1.752 1.48 3.242 3.43 3.242.998.086 1.799-.439 2.34-.906.345-.263.772-1.168 1.001-1.605.174-.346.318-.708.43-1.08.2-.498.314-.906.399-1.169.085-.263.257-.701.457-1.372l.457-1.49c1.23-3.912 2.404-7.327 3.514-10.217.658-1.664 1.507-2.647 1.936-2.86.232-.127.481-.215.74-.263v-.378h-4.683l-.006.407ZM22.14 21.87c-.829-.146-1.542-.906-1.542-2.512V0l-4.715 1.05v.41c.8-.088 1.6.642 1.6 2.19v15.707c0 1.512-.8 2.394-1.6 2.512a2.47 2.47 0 0 1-1.419-.187 3.596 3.596 0 0 1-1.608-1.535l-2.183-3.567a4.033 4.033 0 0 0-1.948-1.648 3.93 3.93 0 0 0-2.526-.129l2.457-2.774c1.858-2.102 3.57-3.446 5.2-4v-.378h-5.4v.378c1.4.554 1.315 1.78-.285 3.709l-3.457 4.116V0L0 1.05v.41c.8 0 1.6.818 1.6 2.248v15.649c0 1.723-.771 2.394-1.6 2.512v.378h6.257v-.378c-1.029-.146-1.543-.964-1.543-2.512v-2.89l1.343-1.512 3.257 5.458c.771 1.323 1.48 1.84 2.628 1.84h10.864v-.3s-.303-.028-.666-.084Zm14.504.045v.378s-3.207 1.183-4.176-.82a4.11 4.11 0 0 1-.406-1.702c-.885 1.868-2.827 2.862-4.656 2.862-2.314 0-3.971-1.11-3.971-3.533.001-.61.18-1.205.514-1.71.686-1.05 1.48-1.605 2.972-2.189.74-.293 1.37-.497 1.85-.642.478-.146 1.11-.293 1.849-.439l1.428-.35v-1.76c0-2.92-1.228-4.233-2.943-4.233-1.343 0-2.114.905-2.114 1.956 0 .584.4 1.431.4 2.043 0 .819-.714 1.403-1.715 1.403-.941 0-1.513-.788-1.513-1.84 0-1.08.514-2.014 1.57-2.834a5.638 5.638 0 0 1 3.544-1.227c4.01 0 5.763 1.945 5.824 6.215v6.516c.022.426.139 2.135 1.543 1.906Zm-4.581-7.716c-.173.09-.572.235-1.229.498l-1.315.497c-.329.155-.571.29-1.056.553-.373.181-.712.428-1 .73a3.305 3.305 0 0 0-.8 2.015c0 1.724.915 2.657 2.314 2.657.714 0 1.4-.293 2.057-.846.686-.556 1.029-1.344 1.029-2.306v-3.797Zm52.894.756a7.722 7.722 0 0 1-.537 2.941 7.592 7.592 0 0 1-1.61 2.5 7.028 7.028 0 0 1-2.327 1.662 6.897 6.897 0 0 1-5.56 0 7.03 7.03 0 0 1-2.328-1.663 7.765 7.765 0 0 1-2.115-5.443c-.015-1 .165-1.993.528-2.922a7.578 7.578 0 0 1 1.59-2.488 6.964 6.964 0 0 1 2.32-1.686 6.832 6.832 0 0 1 5.573 0 6.964 6.964 0 0 1 2.321 1.686 7.47 7.47 0 0 1 1.613 2.481 7.6 7.6 0 0 1 .534 2.929l-.002.003Zm-4.67-5.17c-.566-1.135-1.31-1.79-2.18-1.97-1.768-.363-3.33 1.493-3.912 4.445a14.26 14.26 0 0 0-.185 4.02 11.304 11.304 0 0 0 1.079 3.862c.566 1.134 1.31 1.792 2.18 1.97 1.768.364 3.375-1.573 3.962-4.554.497-2.495.25-5.528-.944-7.774Zm-24.583 9.573V7.649H45.65v.352c1.342.204 1.98 1.24 1.37 2.918-3.144 8.73-2.942 8.34-3.144 9.039-.2-.671-.657-2.323-1.4-4.397-.744-2.073-1.232-3.444-1.417-4.058-.77-2.423-.514-3.328.74-3.474v-.378h-6.521v.378c.973.204 1.829 1.344 2.543 3.387l1 2.658c1.099 2.869 2.39 6.833 2.823 8.175h2.166c.697-2.08 3.493-10.37 3.867-11.213.403-.96.862-1.688 1.374-2.19a2.869 2.869 0 0 1 1.94-.828s1.57-.07 1.57 1.55v9.789c0 1.636-.771 2.394-1.57 2.512v.378h6.227v-.378c-.828-.118-1.513-.876-1.513-2.512ZM95 0H84.07v7.65H95l-2.156-3.824L95 0Z"/></svg>