<svg width="20" height="20" viewBox="0 0 20 20" fill="none" xmlns="http://www.w3.org/2000/svg">
<path fill-rule="evenodd" clip-rule="evenodd" d="M10 2C5.58172 2 2 5.58172 2 10C2 14.4183 5.58172 18 10 18C14.4183 18 18 14.4183 18 10C18 9.44772 17.5523 9 17 9L11 9V3C11 2.44772 10.5523 2 10 2ZM4 10C4 7.027 6.16229 4.55904 9 4.08296V10C9 10.5523 9.44772 11 10 11H15.917C15.441 13.8377 12.973 16 10 16C6.68629 16 4 13.3137 4 10Z" fill="#606A72"/>
<path fill-rule="evenodd" clip-rule="evenodd" d="M13 2C12.4477 2 12 2.44772 12 3V7C12 7.55228 12.4477 8 13 8H17C17.5523 8 18 7.55228 18 7C18 4.23858 15.7614 2 13 2ZM14 6V4.17071C14.8524 4.47199 15.528 5.14759 15.8293 6H14Z" fill="#606A72"/>
</svg>
