<svg width="20" height="20" viewBox="0 0 20 20" fill="none" xmlns="http://www.w3.org/2000/svg">
<path fill-rule="evenodd" clip-rule="evenodd" d="M6.5 2C4.567 2 3 3.567 3 5.5C3 6.67752 3.58149 7.71922 4.47298 8.35362C2.48176 9.07295 1 10.8243 1 13V15C1 16.6569 2.34315 18 4 18H16C17.6569 18 19 16.6569 19 15V13.5C19 11.9873 18.2536 10.6489 17.109 9.83309C17.6631 9.2139 18 8.3963 18 7.5C18 5.567 16.433 4 14.5 4C12.567 4 11 5.567 11 7.5C11 8.36398 11.313 9.15484 11.8319 9.76534C11.59 9.93403 11.3663 10.1271 11.1644 10.341C10.5393 9.43913 9.60827 8.74422 8.52702 8.35362C9.41851 7.71922 10 6.67752 10 5.5C10 3.567 8.433 2 6.5 2ZM5 5.5C5 4.67157 5.67157 4 6.5 4C7.32843 4 8 4.67157 8 5.5C8 6.32843 7.32843 7 6.5 7C5.67157 7 5 6.32843 5 5.5ZM10.0086 13H10C10 11.4506 8.54698 10 6.5 10C4.45302 10 3 11.4506 3 13V15C3 15.5523 3.44772 16 4 16H10V13.2727C10 13.1811 10.0029 13.0902 10.0086 13ZM14.5 11H14.2727C13.0175 11 12 12.0175 12 13.2727V16H16C16.5523 16 17 15.5523 17 15V13.5C17 12.1193 15.8807 11 14.5 11ZM14.5 9C15.3284 9 16 8.32843 16 7.5C16 6.67157 15.3284 6 14.5 6C13.6716 6 13 6.67157 13 7.5C13 8.32843 13.6716 9 14.5 9Z" fill="#606A72"/>
</svg>
