<svg width="20" height="20" viewBox="0 0 20 20" fill="none" xmlns="http://www.w3.org/2000/svg">
<path d="M10 8L6 8V6L10 6V8Z" fill="#606A72"/>
<path d="M6 12H10V10L6 10V12Z" fill="#606A72"/>
<path fill-rule="evenodd" clip-rule="evenodd" d="M5 18C3.34315 18 2 16.6569 2 15V5C2 3.34315 3.34315 2 5 2H11C12.6569 2 14 3.34315 14 5H15C16.6569 5 18 6.34315 18 8V15C18 16.6569 16.6569 18 15 18H5ZM4 5C4 4.44772 4.44772 4 5 4H11C11.5523 4 12 4.44772 12 5V16H5C4.44772 16 4 15.5523 4 15V5ZM14 16H15C15.5523 16 16 15.5523 16 15V8C16 7.44772 15.5523 7 15 7H14V16Z" fill="#606A72"/>
</svg>
