<svg width="20" height="20" viewBox="0 0 20 20" fill="none" xmlns="http://www.w3.org/2000/svg">
<path fill-rule="evenodd" clip-rule="evenodd" d="M14 8C12.1362 8 10.5701 6.72523 10.126 5H10C9.04545 5 8.24708 5.66872 8.04783 6.56324C9.21701 7.26141 10 8.53927 10 10C10 11.4607 9.21701 12.7386 8.04783 13.4368C8.24708 14.3313 9.04545 15 10 15H10.126C10.5701 13.2748 12.1362 12 14 12C16.2091 12 18 13.7909 18 16C18 18.2091 16.2091 20 14 20C12.1362 20 10.5701 18.7252 10.126 17H10C8.13546 17 6.56889 15.7243 6.12552 13.9981C6.08384 13.9994 6.042 14 6 14C3.79086 14 2 12.2091 2 10C2 7.79086 3.79086 6 6 6C6.04199 6 6.08384 6.00065 6.12552 6.00193C6.56889 4.27572 8.13547 3 10 3H10.126C10.5701 1.27477 12.1362 0 14 0C16.2091 0 18 1.79086 18 4C18 6.20914 16.2091 8 14 8ZM14 2C12.8954 2 12 2.89543 12 4C12 5.10457 12.8954 6 14 6C15.1046 6 16 5.10457 16 4C16 2.89543 15.1046 2 14 2ZM6 8C4.89543 8 4 8.89543 4 10C4 11.1046 4.89543 12 6 12C7.10457 12 8 11.1046 8 10C8 8.89543 7.10457 8 6 8ZM12 16C12 14.8954 12.8954 14 14 14C15.1046 14 16 14.8954 16 16C16 17.1046 15.1046 18 14 18C12.8954 18 12 17.1046 12 16Z" fill="#606A72"/>
</svg>
