<svg width="20" height="20" viewBox="0 0 20 20" fill="none" xmlns="http://www.w3.org/2000/svg">
<path fill-rule="evenodd" clip-rule="evenodd" d="M10.0002 1.88184L18.4474 6.10544C18.9414 6.35243 19.1416 6.9531 18.8946 7.44708C18.6477 7.94106 18.047 8.14129 17.553 7.8943L17 7.61779V14.9999C17 16.6567 15.6569 17.9999 14 17.9999H6C4.34315 17.9999 3 16.6567 3 14.9999V7.61801L2.44743 7.8943C1.95345 8.14129 1.35278 7.94106 1.10579 7.44708C0.858803 6.9531 1.05903 6.35243 1.55301 6.10544L10.0002 1.88184ZM9 15.9999L11 15.9999V12.9999H9V15.9999ZM13 15.9999V10.9999H7V15.9999H6C5.44772 15.9999 5 15.5522 5 14.9999V6.61801L10.0002 4.1179L15 6.61779V14.9999C15 15.5522 14.5523 15.9999 14 15.9999H13Z" fill="#606A72"/>
</svg>
