<svg width="20" height="20" viewBox="0 0 20 20" fill="none" xmlns="http://www.w3.org/2000/svg">
<path fill-rule="evenodd" clip-rule="evenodd" d="M16.1405 12.5685C18.264 11.4323 18.2506 8.38322 16.1171 7.26578L6.5287 2.24358C4.20776 1.02793 1.55305 3.1628 2.24247 5.69051L3.39257 9.90727L2.22294 14.2879C1.5458 16.824 4.2222 18.9453 6.5367 17.707L16.1405 12.5685ZM15.1892 9.03747C15.9003 9.40995 15.9048 10.4263 15.197 10.805L5.59317 15.9435C4.82167 16.3563 3.92954 15.6492 4.15525 14.8038L5.17081 11.0002L8.99976 11.0002C9.55204 11.0002 9.99976 10.5525 9.99976 10.0002C9.99976 9.44796 9.55204 9.00024 8.99976 9.00024H5.21824L4.17199 5.16424C3.94218 4.32168 4.82708 3.61005 5.60073 4.01527L15.1892 9.03747Z" fill="#606A72"/>
</svg>
