<svg width="20" height="20" viewBox="0 0 20 20" fill="none" xmlns="http://www.w3.org/2000/svg">
<path fill-rule="evenodd" clip-rule="evenodd" d="M8.5 2C4.91015 2 2 4.91015 2 8.5C2 12.0899 4.91015 15 8.5 15C9.93412 15 11.2598 14.5356 12.3347 13.7489L16.2929 17.7071L17.7071 16.2928L13.7489 12.3347C14.5356 11.2597 15 9.93409 15 8.5C15 4.91015 12.0899 2 8.5 2ZM4 8.5C4 6.01472 6.01472 4 8.5 4C10.9853 4 13 6.01472 13 8.5C13 10.9853 10.9853 13 8.5 13C6.01472 13 4 10.9853 4 8.5Z" fill="#606A72"/>
</svg>
